<svg width="140" height="42" viewBox="0 0 140 42" fill="none" xmlns="http://www.w3.org/2000/svg">
<g clip-path="url(#clip0_538_1810)">
<path d="M28.1148 10.8915C28.026 15.6862 25.1255 20.5106 23.3102 22.7008L23.7048 23.8157C24.4546 25.9072 23.8627 28.2553 22.2052 29.745L19.4921 32.2016L7.07102 22.8784L8.44237 19.9976C9.39936 17.985 11.4712 16.7518 13.691 16.8603L15.2005 16.9392C16.9368 12.4996 21.0114 9.72729 24.3066 8.25728C22.4913 7.40882 20.4787 6.91553 18.3477 6.91553C10.5931 6.92539 4.30859 13.2001 4.30859 20.9546C4.30859 24.6543 5.749 28.0087 8.0872 30.5146C8.20559 29.3208 8.61996 28.1468 9.34016 27.1405L10.3563 25.7099L15.7332 29.528L14.717 30.9585C13.9574 32.0339 12.9116 32.8331 11.7376 33.3362C13.7009 34.3919 15.9503 34.9838 18.3378 34.9838C26.0825 34.9838 32.367 28.6993 32.367 20.9546C32.367 17.0083 30.7293 13.4467 28.105 10.9013L28.1148 10.8915Z" fill="white"/>
<path d="M19.5475 33.6714L5.63672 23.2333L7.4027 19.5139C8.557 17.0771 11.0432 15.5972 13.7366 15.7353L14.4568 15.7748C17.1501 9.98352 23.3656 7.33948 25.2697 6.63901C26.1083 6.33317 27.0258 6.41209 27.7756 6.86592C28.4958 7.30002 28.9891 8.02022 29.1174 8.85882C29.9362 14.2653 26.8186 19.9973 24.5791 22.9176L24.7666 23.4306C25.6742 25.9662 24.9639 28.7779 22.9611 30.5834L19.5475 33.6615V33.6714ZM8.48794 22.5329L19.4094 30.7215L21.4319 28.8963C22.7441 27.7124 23.2078 25.8675 22.6158 24.1903L22.0041 22.4737L22.4185 21.9705C24.2831 19.7211 27.6079 14.1568 26.8581 9.19426C26.8285 8.98707 26.7003 8.86868 26.6115 8.81935C26.4437 8.7207 26.2464 8.71083 26.0392 8.77989C24.2733 9.42117 18.3636 11.9271 16.2425 17.3533L15.9465 18.113L13.6182 17.9946C11.8423 17.9058 10.2145 18.8825 9.45479 20.4808L8.48794 22.523V22.5329Z" fill="white"/>
<path d="M9.01266 35.0328C8.93373 35.0328 8.85481 35.0328 8.76601 35.0328C8.17406 35.0131 7.65117 34.648 7.43413 34.0857C6.45741 31.5403 6.82245 28.6891 8.40098 26.4693L10.0782 24.1113L17.3098 29.2514L15.6326 31.6094C14.1034 33.7601 11.637 35.0328 9.00279 35.0328H9.01266ZM10.6208 27.2881L10.2656 27.7913C9.23957 29.2416 8.92387 31.0569 9.39743 32.7439C11.1535 32.6354 12.7617 31.7376 13.7877 30.2873L14.1429 29.7842L10.6208 27.2783V27.2881Z" fill="white"/>
</g>
<path d="M47.8513 21.65C48.2347 25.5001 45.2632 27.9283 42.3078 27.9283C39.1926 27.9283 36.4927 25.1806 36.4927 21.8097C36.4927 18.5987 39.0169 15.6432 42.3078 15.6432C44.784 15.6432 46.9566 17.3047 47.8193 19.8448L45.0875 20.2282C43.7136 16.8733 39.2086 18.1034 39.2086 21.8097C39.2086 25.548 43.3941 26.842 45.1035 23.7428H41.3493V21.65H47.8513ZM51.7826 27.8485H49.2105V15.819H53.46C58.5402 15.819 59.0514 23.2475 54.9937 24.7173L57.5657 27.8485H54.3227L51.9583 24.9729H51.7826V27.8485ZM53.46 18.391H51.7826V22.4328H53.46C55.7285 22.4328 55.7285 18.391 53.46 18.391ZM59.307 15.819H66.7356V18.4869H61.9749V20.4518H65.841V23.1357H61.9749V25.1167H66.7356V27.7846C64.2754 27.7846 61.7832 27.7846 59.307 27.7846V15.819ZM68.418 15.819H75.8466V18.4869H71.0859V20.4518H74.952V23.1357H71.0859V25.1167H75.8466V27.7846C73.3864 27.7846 70.8942 27.7846 68.418 27.7846V15.819ZM84.7179 23.6309V15.8349H87.3858V27.8165H84.4943L80.133 20.3879V27.8165H77.4651V15.8349H80.133L84.7179 23.6309ZM91.3114 15.803L93.7237 24.3498L96.168 15.803H99.0595L101.472 24.3498L103.868 15.803H106.76L103.421 27.7846H99.5068L97.6217 20.9471L95.6887 27.7846H91.7907L88.4199 15.803H91.3114ZM107.763 27.8165V15.8349H110.447V27.8165H107.763ZM117.711 18.423C115.985 18.423 114.58 20.0205 114.58 21.7778C114.58 23.4392 115.906 25.1167 117.711 25.1167C118.909 25.1167 119.963 24.3658 120.523 23.2635L123.286 23.6469C122.519 25.9634 120.331 27.7526 117.711 27.7526C114.58 27.7526 111.848 25.0528 111.848 21.7778C111.848 18.6626 114.388 15.787 117.711 15.787C120.219 15.787 122.376 17.4325 123.286 19.8767L120.523 20.2601C120.027 19.2217 118.957 18.423 117.711 18.423ZM131.459 20.4838V15.8349H134.143V27.8165H131.459V23.1677H127.625V27.8165H124.941V15.8349H127.625V20.4838H131.459Z" fill="white"/>
<defs>
<clipPath id="clip0_538_1810">
<rect width="28.0584" height="28.5714" fill="white" transform="translate(4.30859 6.46167)"/>
</clipPath>
</defs>
</svg>
