<svg width="70" height="28" viewBox="0 0 70 28" fill="none" xmlns="http://www.w3.org/2000/svg">
<g clipPath="url(#clip0_49_5297)">
<path d="M7.869 12.6796L4.91094 7.54901L3.82469 12.6796H2.19531L3.84897 4.85645H5.50021L8.06529 9.52482L9.04753 4.85645H10.6886L9.03619 12.6796H7.869Z" fill="white"/>
<path d="M10.2852 12.6796L11.4993 6.95934H13.3124L13.0372 8.23055H15.9147L15.6468 9.47909H12.7693L12.4229 11.1198H16.4093L16.0855 12.68L10.2852 12.6796ZM11.6138 6.38181L11.9376 4.85645H17.7384L17.4146 6.38181H11.6138Z" fill="white"/>
<path d="M22.3133 12.6796L21.204 9.51309L18.7312 12.6796H16.8594L20.2335 8.51951L18.7081 4.85645H20.6147L21.701 7.74529L24.0119 4.85645H25.8254L22.6824 8.65793L24.2539 12.6796H22.3133Z" fill="white"/>
<path d="M28.3227 12.6798H26.5662L27.8949 6.39338H26L26.3238 4.85547H31.8817L31.5579 6.39338H29.6513L28.3227 12.6798Z" fill="white"/>
<path d="M5.165 20.5947H0.503906L1.97221 13.6445H3.53279L2.36235 19.1891H5.46246L5.165 20.5947Z" fill="white"/>
<path d="M6.00781 20.5947L7.08759 15.5131H8.69957L8.45107 16.6427H11.0072L10.7705 17.7512H8.21472L7.90673 19.2081H11.4488L11.1614 20.5939L6.00781 20.5947ZM7.18836 14.9999L7.47571 13.6445H12.6293L12.342 14.9999H7.18836Z" fill="white"/>
<path d="M14.0447 20.5947L13.3672 13.6445H14.9784L15.3685 18.716L18.0068 13.6445H19.5569L15.8003 20.5947H14.0447Z" fill="white"/>
<path d="M18.7891 20.5947L19.8672 15.5131H21.4788L21.2327 16.6427H23.7889L23.5525 17.7516H20.9964L20.6884 19.2085H24.2304L23.9427 20.5943L18.7891 20.5947ZM19.97 14.9999L20.2574 13.6445H25.411L25.1232 14.9999H19.97Z" fill="white"/>
<path d="M29.731 20.5947H25.0703L26.5382 13.6445H28.0988L26.9284 19.1891H30.0289L29.731 20.5947Z" fill="white"/>
<path d="M0.00390625 22.9156L0.210715 21.9398H0.520321L0.47297 22.1567H0.963888L0.91856 22.3696H0.427642L0.368149 22.6501H1.04807L0.993432 22.9156H0.00390625ZM0.230546 21.8415L0.287206 21.582H1.27511L1.22007 21.8423L0.230546 21.8415Z" fill="white"/>
<path d="M3.97764 22.9153L4.0687 22.4798L4.07154 22.4628C4.07154 22.4583 4.07154 22.4539 4.07154 22.4502C4.07154 22.4292 4.05332 22.4187 4.0165 22.4187H3.58547L3.48308 22.9153H3.18359L3.3904 21.9395H3.6903L3.63485 22.1977H4.0428C4.06324 22.2001 4.08388 22.1952 4.10108 22.1839C4.11417 22.1682 4.1227 22.1492 4.12577 22.1289L4.17312 21.912C4.17312 21.9055 4.17312 21.8994 4.17595 21.8942C4.17879 21.8889 4.17595 21.8845 4.17595 21.8804C4.17681 21.8744 4.17598 21.8682 4.17355 21.8627C4.17112 21.8571 4.16719 21.8523 4.16219 21.8488C4.14725 21.8425 4.13101 21.8399 4.11484 21.8412H3.40821L3.46325 21.5809H4.31113C4.36303 21.5765 4.41493 21.5893 4.45885 21.6173C4.47447 21.6311 4.4867 21.6484 4.49456 21.6677C4.50242 21.687 4.50571 21.7078 4.50418 21.7286C4.50403 21.7412 4.50295 21.7538 4.50094 21.7663C4.50094 21.7792 4.49689 21.793 4.49406 21.8067L4.43295 22.0965C4.42551 22.1528 4.39755 22.2044 4.35443 22.2414C4.31758 22.2691 4.27398 22.2864 4.22816 22.2916C4.26537 22.2929 4.30179 22.3027 4.3346 22.3203C4.3493 22.3294 4.36116 22.3424 4.36881 22.3578C4.37647 22.3733 4.37962 22.3906 4.37791 22.4078V22.4296C4.37787 22.4372 4.3765 22.4447 4.37386 22.4519L4.27754 22.9153H3.97764Z" fill="white"/>
<path d="M7.35185 22.9156H6.45703L6.74033 21.5801H7.03982L6.8152 22.6445H7.40851L7.35185 22.9156Z" fill="white"/>
<path d="M9.48438 22.9154L9.69118 21.9396H10.0008L9.95344 22.1566H10.444L10.3982 22.3694H9.90811L9.84902 22.6491H10.5289L10.4739 22.9154H9.48438ZM9.71102 21.8413L9.76606 21.5811H10.7556L10.7005 21.8413H9.71102Z" fill="white"/>
<path d="M12.668 22.9157L12.8768 21.9242H13.1763L13.131 22.1391H13.549C13.57 22.1412 13.591 22.1364 13.6089 22.1253C13.6221 22.1126 13.6307 22.096 13.6336 22.0779L13.6672 21.9161C13.6709 21.9045 13.6728 21.8925 13.6729 21.8804C13.6737 21.8743 13.6728 21.8681 13.6704 21.8624C13.668 21.8567 13.6641 21.8518 13.6591 21.8481C13.6446 21.8409 13.6283 21.8378 13.6122 21.8392H12.8966L12.9496 21.581H13.7995C13.8515 21.5765 13.9034 21.5893 13.9473 21.6174C13.963 21.6311 13.9752 21.6483 13.9831 21.6677C13.991 21.687 13.9942 21.7079 13.9926 21.7287C13.9926 21.7413 13.9917 21.7539 13.9898 21.7663C13.9877 21.7793 13.9853 21.793 13.9829 21.8068L13.9295 22.0573C13.9226 22.1036 13.9005 22.1463 13.8667 22.1787C13.8341 22.2054 13.7942 22.2215 13.7522 22.2249C13.7854 22.2273 13.8175 22.2374 13.8461 22.2544C13.8584 22.2629 13.8682 22.2745 13.8746 22.288C13.881 22.3015 13.8837 22.3164 13.8825 22.3313C13.8829 22.3379 13.8829 22.3445 13.8825 22.3511C13.882 22.3578 13.881 22.3644 13.8797 22.371L13.8125 22.6883C13.8029 22.7528 13.7728 22.8125 13.7267 22.8586C13.6732 22.9002 13.6061 22.9203 13.5385 22.9149L12.668 22.9157ZM13.5745 22.4013C13.5758 22.3954 13.5767 22.3895 13.5774 22.3835C13.5777 22.3789 13.5777 22.3743 13.5774 22.3697C13.5783 22.3632 13.5773 22.3566 13.5745 22.3506C13.5717 22.3446 13.5672 22.3396 13.5616 22.3362C13.5459 22.3301 13.529 22.3274 13.5122 22.3285H13.0917L13.0225 22.6522H13.4446C13.456 22.6549 13.4677 22.6549 13.4791 22.6522C13.4904 22.6495 13.5009 22.6442 13.5099 22.6368C13.5188 22.6293 13.5259 22.6199 13.5306 22.6092C13.5353 22.5986 13.5374 22.587 13.5369 22.5753L13.5745 22.4013Z" fill="white"/>
<path d="M16.9091 22.9156L16.4044 22.0415L16.219 22.9156H15.9414L16.2247 21.5801H16.508L16.9455 22.3762L17.1131 21.5801H17.3931L17.1098 22.9156H16.9091Z" fill="white"/>
<path d="M19.3086 22.9156L19.5919 21.5801H19.8914L19.6081 22.9156H19.3086Z" fill="white"/>
<path d="M21.7969 22.9154L21.8519 22.6552H22.5634C22.5819 22.6567 22.6003 22.6518 22.6156 22.6414C22.6293 22.6275 22.638 22.6094 22.6403 22.59L22.6808 22.405C22.6818 22.3978 22.6818 22.3904 22.6808 22.3832C22.6808 22.3597 22.6638 22.3476 22.6298 22.3476H22.1036C22.0617 22.3514 22.0199 22.3391 21.9867 22.3132C21.9741 22.3004 21.9644 22.2851 21.9581 22.2683C21.9518 22.2515 21.9492 22.2335 21.9503 22.2156C21.9505 22.1965 21.9524 22.1774 21.9559 22.1586L22.0288 21.8138C22.0392 21.7477 22.0696 21.6864 22.1158 21.6381C22.17 21.5956 22.2382 21.5752 22.3068 21.581H23.1365L23.0835 21.8352H22.376C22.3597 21.8338 22.3435 21.8387 22.3307 21.849C22.3194 21.8633 22.312 21.8803 22.3092 21.8983L22.2716 22.074C22.2716 22.0788 22.2716 22.0837 22.2688 22.0877C22.2684 22.0916 22.2684 22.0956 22.2688 22.0995C22.2688 22.1193 22.2829 22.129 22.3121 22.129H22.8459C22.8895 22.1244 22.9331 22.1372 22.9673 22.1646C22.9799 22.1776 22.9896 22.1931 22.9959 22.21C23.0021 22.2269 23.0048 22.245 23.0037 22.263C23.0035 22.2815 23.0016 22.2999 22.9981 22.318L22.9212 22.6823C22.9106 22.7483 22.8802 22.8095 22.8342 22.8579C22.78 22.9011 22.7113 22.9217 22.6423 22.9154H21.7969Z" fill="white"/>
<path d="M25.043 22.9154L25.0984 22.6552H25.8099C25.8284 22.6567 25.8468 22.6518 25.8621 22.6414C25.8756 22.6274 25.8843 22.6093 25.8868 22.59L25.9273 22.4051C25.9281 22.3978 25.9281 22.3905 25.9273 22.3832C25.9273 22.3597 25.9103 22.3476 25.8759 22.3476H25.3497C25.3077 22.3514 25.2657 22.3391 25.2324 22.3132C25.2198 22.3004 25.2101 22.2851 25.2038 22.2683C25.1975 22.2515 25.1948 22.2335 25.196 22.2156C25.1963 22.1965 25.1983 22.1774 25.202 22.1586L25.2749 21.8138C25.2854 21.7478 25.3156 21.6866 25.3615 21.6381C25.4158 21.5956 25.4842 21.5752 25.5529 21.5811H26.3826L26.3296 21.8352H25.6233C25.607 21.8338 25.5908 21.8388 25.578 21.849C25.5666 21.8632 25.5592 21.8803 25.5566 21.8983L25.5189 22.074C25.5177 22.0785 25.5167 22.0831 25.5161 22.0878C25.5157 22.0917 25.5157 22.0956 25.5161 22.0995C25.5161 22.1193 25.5307 22.129 25.5598 22.129H26.0936C26.1365 22.125 26.1793 22.1377 26.213 22.1647C26.2256 22.1776 26.2353 22.1931 26.2415 22.21C26.2478 22.2269 26.2505 22.245 26.2494 22.263C26.2493 22.2815 26.2472 22.2999 26.2434 22.318L26.1665 22.6823C26.1562 22.7483 26.1259 22.8096 26.0798 22.8579C26.0264 22.9002 25.9588 22.9206 25.8908 22.915L25.043 22.9154Z" fill="white"/>
<path d="M28.2852 22.9154L28.4924 21.9396H28.8016L28.7542 22.1566H29.2451L29.1998 22.3694H28.7089L28.6498 22.6491H29.3297L29.2747 22.9154H28.2852ZM28.5118 21.8413L28.5672 21.5811H29.5564L29.5013 21.8413H28.5118Z" fill="white"/>
<path d="M30.6016 22.9171L34.4374 4.87207H35.2355L31.4001 22.9171H30.6016Z" fill="white"/>
<path d="M32.7305 22.9171L36.5659 4.87207H37.8962L34.0608 22.9171H32.7305Z" fill="white"/>
<path d="M36.1875 22.9171L40.023 4.87207H42.1522L38.3163 22.9171H36.1875Z" fill="white"/>
<path d="M69.9972 13.8946L57.2552 0.0898438L56.2386 4.87235H45.6128L41.7773 22.9173H52.4031L51.3865 27.6998L69.9972 13.8946Z" fill="white"/>
</g>
<defs>
<clipPath id="clip0_49_5297">
<rect width="69.9933" height="27.61" fill="white" transform="translate(0.00390625 0.0898438)"/>
</clipPath>
</defs>
</svg>
