<svg width="530" height="116" viewBox="0 0 530 116" fill="none" xmlns="http://www.w3.org/2000/svg">
<g clip-path="url(#clip0_538_1818)">
<path d="M96.7961 18.0862C96.4367 37.4937 84.6963 57.021 77.3486 65.8861L78.946 70.3986C81.9809 78.8644 79.5849 88.3685 72.8761 94.3984L61.8945 104.342L11.6188 66.6049L17.1695 54.9445C21.043 46.7981 29.4289 41.8065 38.4139 42.2457L44.5236 42.5652C51.5519 24.5953 68.0442 13.3741 81.3819 7.42407C74.0342 3.98982 65.8878 1.99316 57.2623 1.99316C25.8749 2.0331 0.4375 27.4305 0.4375 58.818C0.4375 73.7929 6.26773 87.3701 15.7319 97.5131C16.2111 92.6812 17.8883 87.9292 20.8034 83.856L24.9165 78.0657L46.68 93.5198L42.5669 99.3101C39.4921 103.663 35.2592 106.897 30.5071 108.934C38.4538 113.207 47.5586 115.603 57.2224 115.603C88.5698 115.603 114.007 90.1655 114.007 58.818C114.007 42.8447 107.378 28.4289 96.7561 18.1261L96.7961 18.0862Z" fill="white"/>
<path d="M62.1182 110.289L5.8125 68.0398L12.9605 52.9851C17.6327 43.1216 27.6958 37.1316 38.5976 37.6907L41.5127 37.8504C52.4144 14.4097 77.5723 3.70761 85.2794 0.872357C88.6737 -0.36557 92.3875 -0.0461047 95.4224 1.79082C98.3375 3.54787 100.334 6.46299 100.853 9.8573C104.168 31.7406 91.5489 54.9418 82.4841 66.762L83.2428 68.8385C86.9166 79.1013 84.0414 90.4822 75.935 97.79L62.1182 110.249V110.289ZM17.3532 65.2046L61.5591 98.3491L69.7454 90.9614C75.0565 86.1695 76.9333 78.702 74.5374 71.9133L72.0615 64.965L73.7387 62.9284C81.2861 53.8237 94.7435 31.3014 91.7086 11.215C91.5888 10.3764 91.0697 9.89724 90.7103 9.69757C90.0314 9.29824 89.2327 9.25831 88.3942 9.53784C81.2461 12.1335 57.3262 22.2765 48.7406 44.2397L47.5426 47.3146L38.1184 46.8354C30.9304 46.476 24.3415 50.4293 21.2666 56.8985L17.3532 65.1646V65.2046Z" fill="white"/>
<path d="M19.4757 115.8C19.1563 115.8 18.8368 115.8 18.4774 115.8C16.0814 115.72 13.9649 114.242 13.0864 111.966C9.13304 101.663 10.6106 90.1227 16.9999 81.1378L23.7885 71.5938L53.0595 92.3989L46.2708 101.943C40.0812 110.648 30.0979 115.8 19.4358 115.8H19.4757ZM25.9848 84.4522L24.5472 86.4888C20.3942 92.359 19.1163 99.7067 21.0331 106.535C28.1412 106.096 34.6503 102.462 38.8033 96.5919L40.2409 94.5553L25.9848 84.4123V84.4522Z" fill="white"/>
</g>
<path d="M176.684 61.8227C178.235 77.4064 166.208 87.2351 154.246 87.2351C141.636 87.2351 130.708 76.1131 130.708 62.4693C130.708 49.4722 140.925 37.5096 154.246 37.5096C164.268 37.5096 173.062 44.2345 176.554 54.5159L165.497 56.0678C159.936 42.4886 141.701 47.4677 141.701 62.4693C141.701 77.6004 158.643 82.838 165.562 70.2935H150.366V61.8227H176.684ZM192.596 86.9118H182.185V38.2209H199.386C219.948 38.2209 222.017 68.289 205.593 74.2379L216.004 86.9118H202.877L193.307 75.2725H192.596V86.9118ZM199.386 48.6316H192.596V64.9912H199.386C208.568 64.9912 208.568 48.6316 199.386 48.6316ZM223.052 38.2209H253.12V49.0196H233.851V56.973H249.499V67.8363H233.851V75.8545H253.12V86.6531C243.162 86.6531 233.075 86.6531 223.052 86.6531V38.2209ZM259.93 38.2209H289.998V49.0196H270.729V56.973H286.377V67.8363H270.729V75.8545H289.998V86.6531C280.04 86.6531 269.953 86.6531 259.93 86.6531V38.2209ZM325.906 69.8409V38.2856H336.704V86.7824H325.001L307.348 56.7144V86.7824H296.549V38.2856H307.348L325.906 69.8409ZM352.594 38.1563L362.358 72.7507L372.251 38.1563H383.955L393.719 72.7507L403.418 38.1563H415.122L401.608 86.6531H385.766L378.135 58.9776L370.311 86.6531H354.534L340.89 38.1563H352.594ZM419.185 86.7824V38.2856H430.048V86.7824H419.185ZM459.448 48.7609C452.465 48.7609 446.775 55.2272 446.775 62.34C446.775 69.0649 452.142 75.8545 459.448 75.8545C464.298 75.8545 468.566 72.8153 470.829 68.3536L482.016 69.9055C478.912 79.2816 470.053 86.5238 459.448 86.5238C446.775 86.5238 435.717 75.5958 435.717 62.34C435.717 49.7308 445.999 38.0916 459.448 38.0916C469.6 38.0916 478.33 44.7518 482.016 54.6452L470.829 56.1971C468.825 51.994 464.492 48.7609 459.448 48.7609ZM515.095 57.1024V38.2856H525.958V86.7824H515.095V67.9657H499.576V86.7824H488.713V38.2856H499.576V57.1024H515.095Z" fill="white"/>
<defs>
<clipPath id="clip0_538_1818">
<rect width="113.57" height="115.646" fill="white" transform="translate(0.4375 0.155273)"/>
</clipPath>
</defs>
</svg>
